<?xml version="1.0" encoding="UTF-8"?>
<svg id="Capa_1" data-name="Capa 1" xmlns="http://www.w3.org/2000/svg" viewBox="0 0 792 612" role="img" aria-label="Kembla's Garage">
  <defs>
    <style>
      .cls-1 {
        font-family: Novecentosansnarrow-UltrLt, 'Novecento sans narrow';
        font-size: 58.84px;
      }

      .cls-1, .cls-2 {
        fill: #fff;
      }

      .cls-3 {
        letter-spacing: 0em;
      }

      .cls-4 {
        letter-spacing: -.02em;
      }

      .cls-5 {
        fill: #0a0a0a;
      }

      .cls-6 {
        fill: #d12431;
      }
    </style>
  </defs>
  <rect class="cls-5" x="31.04" y="61.59" width="745.71" height="517.6"/>
  <g>
    <g>
      <path class="cls-2" d="M232.78,407.4l.21-29.3-.17-28.37c0-.42.21-.59.59-.59h9.12c.38,0,.59.17.59.59l-.08,25.51,19.59-25.76c.21-.25.42-.34.71-.34h10.8c.5,0,.63.38.34.71l-19.12,22.95,23.45,34.46c.25.42.08.71-.42.71h-11.35c-.29,0-.5-.08-.71-.38l-6.3-9.54-11.26-17.15-5.67,6.89.04,19.59c0,.42-.21.59-.59.59h-9.16c-.38,0-.59-.17-.59-.59Z"/>
      <path class="cls-2" d="M279.85,407.4l.25-29.38-.25-28.29c0-.42.21-.59.59-.59h37.87c.34,0,.59.21.59.59v6.52c0,.38-.25.59-.59.59h-28.08l-.17,16.06h26.02c.34,0,.59.21.59.59v6.51c0,.38-.25.59-.59.59h-26.02l.17,19.71h28.75c.34,0,.59.21.59.59v6.52c0,.38-.25.59-.59.59h-38.54c-.38,0-.59-.17-.59-.59Z"/>
      <path class="cls-2" d="M322.04,407.4l.17-28.54-.13-29.13c0-.42.21-.59.59-.59h12.61c.34,0,.59.17.71.46l12.69,33.46,4.58,12.11,4.41-12.11,12.19-33.46c.13-.29.38-.46.71-.46h11.81c.38,0,.59.17.59.59l-.13,29.13.17,28.54c0,.42-.21.59-.59.59h-9.12c-.38,0-.59-.21-.59-.59l.04-26.73.34-17.57-16.27,44.43c-.13.29-.38.46-.71.46h-7.15c-.34,0-.59-.17-.71-.46l-17.32-45.6.42,18.75.04,26.73c0,.38-.25.59-.59.59h-8.2c-.38,0-.59-.17-.59-.59Z"/>
      <path class="cls-2" d="M386.97,407.4l.25-29.34-.25-28.33c0-.42.21-.59.59-.59h23.87c11.94,0,20.55,4.62,20.55,14.33,0,7.19-3.74,11.22-10.51,13.11,8.28,1.93,12.11,7.1,12.19,13.79,0,12.61-10.47,17.61-21.94,17.61h-24.17c-.38,0-.59-.17-.59-.59ZM411.52,373.44c6.26,0,10.17-2.56,10.17-8.41s-4.33-8.62-10.17-8.62h-14.16l-.17,17.02h14.33ZM411.52,400.67c6.77,0,11.73-2.52,11.73-10.25,0-7.1-5.46-9.71-11.73-9.71h-14.33l.17,19.96h14.16Z"/>
      <path class="cls-2" d="M436.65,407.4l.21-29.59-.21-28.08c0-.42.21-.59.59-.59h9.16c.38,0,.59.17.59.59l-.17,27.53.17,23.03h25.18c.38,0,.59.21.59.59v6.52c0,.38-.21.59-.59.59h-34.93c-.38,0-.59-.17-.59-.59Z"/>
      <path class="cls-2" d="M473.38,407.31l20.38-57.71c.13-.29.34-.46.67-.46h12.69c.29,0,.55.17.63.46l20.09,57.71c.17.46-.08.67-.46.67h-9.42c-.34,0-.59-.13-.67-.46l-5.34-15.93h-23.03l-5.17,15.93c-.08.34-.34.46-.67.46h-9.25c-.38,0-.63-.21-.46-.67ZM509.36,383.4l-9.08-27.24-8.78,27.24h17.86Z"/>
      <path class="cls-2" d="M525.62,388.52c0-.38.21-.59.59-.59h9.58c.34,0,.55.17.59.55.71,7.94,4.37,12.9,15.05,12.9,8.15,0,13.32-2.77,13.32-9.58,0-14.88-37.91-3.62-37.91-26.52,0-10.84,8.49-17.27,22.61-17.27s22.53,5.59,24,17.95c.04.42-.17.63-.55.63h-9.63c-.34,0-.55-.17-.59-.55-.59-6.72-5.25-10.17-13.62-10.17-7.27,0-12.11,2.61-12.11,8.45,0,14,38.04,3.07,38.04,26.18,0,12.23-9.41,18.66-23.83,18.66-15.26,0-25.05-6.93-25.55-20.64Z"/>
    </g>
    <text class="cls-1" transform="translate(316.65 460)"><tspan class="cls-3" x="0" y="0">G</tspan><tspan x="32.12" y="0">AR</tspan><tspan class="cls-4" x="87.02" y="0">A</tspan><tspan x="114.85" y="0">GE</tspan></text>
    <g>
      <g>
        <path class="cls-6" d="M428.97,267.53l-5.88-14.56c-4.61,1.77-7.14,6.5-8.17,14.56h14.05Z"/>
        <path class="cls-6" d="M409.01,224.41l-9.24-22.85,24.04-38.5h-26.31l-16.38,28.22c-2.61,4.53-6.1,11.85-6.62,12.72h-.7v-40.94h-23.87v97.56h23.87l.17-23.87,8.89-13.94,7.14,18.22c4.35-9.19,10.94-14.28,19-16.62Z"/>
        <path class="cls-6" d="M439.81,326.67l.17-6.44h-.7c-3.14,4.18-10.1,7.84-19.51,7.84-18.29,0-33.1-12.54-33.1-50,0-39.72,15.85-50.87,37.46-50.87s31.71,10.63,35.19,31.01l-21.6,5.57c-1.39-6.1-3.83-14.11-12.72-14.11-9.93,0-13.59,7.84-13.59,25.44,0,23.69,4.53,31.36,15.33,31.36,6.1,0,11.5-3.13,13.07-5.92v-7.14h-14.81v-20.91h35.89v54.18h-21.08Z"/>
        <path class="cls-2" d="M345.94,298.98c2.74,2.69,4.49,20.25,4.49,20.25,0,0,2.51-17.37,5.2-20.11,2.69-2.74,12.88-3.78,12.88-3.78,0,0-10.02-2.95-12.71-5.64-2.44-2.45-4.6-18.94-4.6-18.94,0,0-2.43,16.11-5.12,18.85-2.69,2.74-13.5,5.18-13.5,5.18,0,0,10.61,1.51,13.35,4.2ZM349.18,292.65c1.06-1.08,2.02-7.45,2.02-7.45,0,0,.85,6.52,1.82,7.48,1.06,1.07,5.02,2.23,5.02,2.23,0,0-4.03.41-5.09,1.5-1.06,1.08-2.06,7.95-2.06,7.95,0,0-.69-6.94-1.78-8-1.08-1.06-5.27-1.66-5.27-1.66,0,0,4.27-.96,5.33-2.05Z"/>
        <path class="cls-2" d="M330.84,281.33c1.74,1.71,2.85,12.86,2.85,12.86,0,0,1.6-11.03,3.3-12.77,1.71-1.74,8.18-2.4,8.18-2.4,0,0-6.36-1.87-8.07-3.58-1.55-1.55-2.92-12.02-2.92-12.02,0,0-1.55,10.23-3.25,11.97-1.71,1.74-8.57,3.29-8.57,3.29,0,0,6.73.96,8.48,2.67ZM332.89,277.3c.67-.69,1.29-4.73,1.29-4.73,0,0,.54,4.14,1.15,4.75.68.68,3.19,1.42,3.19,1.42,0,0-2.56.26-3.23.95-.67.69-1.31,5.05-1.31,5.05,0,0-.44-4.41-1.13-5.08-.69-.67-3.35-1.05-3.35-1.05,0,0,2.71-.61,3.39-1.3Z"/>
        <path class="cls-2" d="M365.66,281.25c1.74,1.71,2.85,12.86,2.85,12.86,0,0,1.6-11.03,3.3-12.77,1.71-1.74,8.18-2.4,8.18-2.4,0,0-6.36-1.87-8.07-3.58-1.55-1.55-2.92-12.02-2.92-12.02,0,0-1.55,10.23-3.25,11.97-1.71,1.74-8.57,3.29-8.57,3.29,0,0,6.73.96,8.48,2.67ZM367.72,277.23c.67-.69,1.29-4.73,1.29-4.73,0,0,.54,4.14,1.15,4.75.68.68,3.19,1.42,3.19,1.42,0,0-2.56.26-3.23.95-.67.69-1.31,5.05-1.31,5.05,0,0-.44-4.41-1.13-5.08-.69-.67-3.35-1.05-3.35-1.05,0,0,2.71-.61,3.39-1.3Z"/>
        <path class="cls-2" d="M444.24,204.92c2.74,2.69,4.49,20.25,4.49,20.25,0,0,2.51-17.37,5.2-20.11,2.69-2.74,12.88-3.78,12.88-3.78,0,0-10.02-2.95-12.71-5.64-2.44-2.45-4.6-18.94-4.6-18.94,0,0-2.43,16.11-5.12,18.85-2.69,2.74-13.5,5.18-13.5,5.18,0,0,10.61,1.51,13.35,4.2ZM447.47,198.59c1.06-1.08,2.02-7.45,2.02-7.45,0,0,.85,6.52,1.82,7.48,1.06,1.07,5.02,2.23,5.02,2.23,0,0-4.03.41-5.09,1.5-1.06,1.08-2.06,7.95-2.06,7.95,0,0-.69-6.94-1.78-8-1.08-1.06-5.27-1.66-5.27-1.66,0,0,4.27-.96,5.33-2.05Z"/>
        <path class="cls-2" d="M429.13,187.26c1.74,1.71,2.85,12.86,2.85,12.86,0,0,1.6-11.03,3.3-12.77,1.71-1.74,8.18-2.4,8.18-2.4,0,0-6.36-1.87-8.07-3.58-1.55-1.55-2.92-12.02-2.92-12.02,0,0-1.55,10.23-3.25,11.97-1.71,1.74-8.57,3.29-8.57,3.29,0,0,6.73.96,8.48,2.67ZM431.19,183.24c.67-.69,1.29-4.73,1.29-4.73,0,0,.54,4.14,1.15,4.75.68.68,3.19,1.42,3.19,1.42,0,0-2.56.26-3.23.95-.67.69-1.31,5.05-1.31,5.05,0,0-.44-4.41-1.13-5.08-.69-.67-3.35-1.05-3.35-1.05,0,0,2.71-.61,3.39-1.3Z"/>
      </g>
      <path class="cls-2" d="M463.96,187.18c1.74,1.71,2.85,12.86,2.85,12.86,0,0,1.6-11.03,3.3-12.77,1.71-1.74,8.18-2.4,8.18-2.4,0,0-6.36-1.87-8.07-3.58-1.55-1.55-2.92-12.02-2.92-12.02,0,0-1.55,10.23-3.25,11.97-1.71,1.74-8.57,3.29-8.57,3.29,0,0,6.73.96,8.48,2.67ZM466.01,183.16c.67-.69,1.29-4.73,1.29-4.73,0,0,.54,4.14,1.15,4.75.68.68,3.19,1.42,3.19,1.42,0,0-2.56.26-3.23.95-.67.69-1.31,5.05-1.31,5.05,0,0-.44-4.41-1.13-5.08-.69-.67-3.35-1.05-3.35-1.05,0,0,2.71-.61,3.39-1.3Z"/>
    </g>
  </g>
</svg>

